<svg width="24.000000" height="24.000000" viewBox="0 0 24 24" fill="none" xmlns="http://www.w3.org/2000/svg" xmlns:xlink="http://www.w3.org/1999/xlink">
	<defs>
		<clipPath id="clip49_3238">
			<rect id="fluent:grid-24-filled" rx="-0.500000" width="22.999998" height="23.000002" transform="translate(0.500000 24.500000) rotate(-90.000000)" fill="white" fill-opacity="0"/>
		</clipPath>
	</defs>
	<rect id="fluent:grid-24-filled" rx="-0.500000" width="22.999998" height="23.000002" transform="translate(0.500000 24.500000) rotate(-90.000000)" fill="#FFFFFF" fill-opacity="0"/>
	<g clip-path="url(#clip49_3238)">
		<path id="Vector" d="M3 5.25C3 4.65 3.23 4.08 3.65 3.65C4.08 3.23 4.65 3 5.25 3L18.75 3C19.34 3 19.91 3.23 20.34 3.65C20.76 4.08 21 4.65 21 5.25L21 8.75C21 9.34 20.76 9.91 20.34 10.34C19.91 10.76 19.34 11 18.75 11L15.25 11C15.21 11 15.18 11 15.15 10.99L8.84 10.99C8.81 11 8.78 11 8.75 11L5.25 11C4.65 11 4.08 10.76 3.65 10.34C3.23 9.91 3 9.34 3 8.75L3 5.25ZM5.25 21L18.75 21C19.34 21 19.91 20.76 20.34 20.34C20.76 19.91 21 19.34 21 18.75L21 15.25C21 14.65 20.76 14.08 20.34 13.65C19.91 13.23 19.34 13 18.75 13L15.25 13C15.21 13 15.18 13 15.15 13L8.84 13C8.81 13 8.78 13 8.75 13L5.25 13C4.65 13 4.08 13.23 3.65 13.65C3.23 14.08 3 14.65 3 15.25L3 18.75C3 19.34 3.23 19.91 3.65 20.34C4.08 20.76 4.65 21 5.25 21Z" fill="#6C7275" fill-opacity="1.000000" fill-rule="evenodd"/>
	</g>
</svg>
