<svg width="24.000000" height="24.000000" viewBox="0 0 24 24" fill="none" xmlns="http://www.w3.org/2000/svg" xmlns:xlink="http://www.w3.org/1999/xlink">
	<defs>
		<clipPath id="clip49_3224">
			<rect id="fluent:grid-24-filled" rx="-0.500000" width="23.000000" height="23.000000" transform="translate(0.500000 0.500000)" fill="white" fill-opacity="0"/>
		</clipPath>
	</defs>
	<rect id="fluent:grid-24-filled" rx="-0.500000" width="23.000000" height="23.000000" transform="translate(0.500000 0.500000)" fill="#FFFFFF" fill-opacity="0"/>
	<g clip-path="url(#clip49_3224)">
		<path id="Vector" d="M8.75 3C9.34 3 9.91 3.23 10.34 3.65C10.76 4.08 11 4.65 11 5.25L11 8.75C11 8.78 10.99 8.81 10.99 8.84L10.99 15.15C10.99 15.18 11 15.21 11 15.25L11 18.75C11 19.34 10.76 19.91 10.34 20.34C9.91 20.76 9.34 21 8.75 21L5.25 21C4.65 21 4.08 20.76 3.65 20.34C3.23 19.91 3 19.34 3 18.75L3 5.25C3 4.65 3.23 4.08 3.65 3.65C4.08 3.23 4.65 3 5.25 3L8.75 3ZM18.75 3C19.34 3 19.91 3.23 20.34 3.65C20.76 4.08 21 4.65 21 5.25L21 18.75C21 19.34 20.76 19.91 20.34 20.34C19.91 20.76 19.34 21 18.75 21L15.25 21C14.65 21 14.08 20.76 13.65 20.34C13.23 19.91 13 19.34 13 18.75L13 15.25C13 15.21 13 15.18 13 15.15L13 8.84C13 8.81 13 8.78 13 8.75L13 5.25C13 4.65 13.23 4.08 13.65 3.65C14.08 3.23 14.65 3 15.25 3L18.75 3Z" fill="#141718" fill-opacity="1.000000" fill-rule="evenodd"/>
	</g>
</svg>
