<svg width="32.000000" height="32.000000" viewBox="0 0 32 32" fill="none" xmlns="http://www.w3.org/2000/svg" xmlns:xlink="http://www.w3.org/1999/xlink">
	<desc>
			Created with Pixso.
	</desc>
	<defs>
		<clipPath id="clip51_3892">
			<rect id="outline/store 01" width="32.000000" height="32.000000" fill="white" fill-opacity="0"/>
		</clipPath>
	</defs>
	<g clip-path="url(#clip51_3892)">
		<path id="Rectangle 743" d="M26.66 16L26.66 24C26.66 26.94 24.27 29.33 21.33 29.33L10.66 29.33C7.72 29.33 5.33 26.94 5.33 24L5.33 16" stroke="#141718" stroke-opacity="1.000000" stroke-width="2.500000" stroke-linejoin="round"/>
		<path id="Vector" d="M22.35 2.66C24.78 2.66 26.96 4.32 27.86 6.85L28.87 9.69C29.17 10.56 29.38 11.48 29.16 12.36C28.63 14.46 26.92 16 24.88 16C22.43 16 20.44 13.76 20.44 11C20.44 13.76 18.45 16 16 16C13.54 16 11.55 13.76 11.55 11C11.55 13.76 9.56 16 7.11 16C5.07 16 3.36 14.46 2.83 12.36C2.61 11.48 2.82 10.56 3.12 9.69L4.13 6.85C5.03 4.32 7.21 2.66 9.64 2.66L22.35 2.66Z" stroke="#141718" stroke-opacity="1.000000" stroke-width="2.500000" stroke-linejoin="round"/>
		<path id="Rectangle 744" d="M20 29.33L12 29.33L12 25.33C12 23.12 13.79 21.33 16 21.33C18.2 21.33 20 23.12 20 25.33L20 29.33Z" stroke="#141718" stroke-opacity="1.000000" stroke-width="2.500000" stroke-linejoin="round"/>
	</g>
</svg>
