<svg width="32.000000" height="32.000000" viewBox="0 0 32 32" fill="none" xmlns="http://www.w3.org/2000/svg" xmlns:xlink="http://www.w3.org/1999/xlink">
	<desc>
			Created with Pixso.
	</desc>
	<defs>
		<clipPath id="clip51_3896">
			<rect id="outline/call" width="32.000000" height="32.000000" fill="white" fill-opacity="0"/>
		</clipPath>
	</defs>
	<g clip-path="url(#clip51_3896)">
		<path id="Rectangle 77" d="M28 25.33C28 26.8 26.8 28 25.33 28C13.55 28 4 18.44 4 6.66C4 5.19 5.19 4 6.66 4L8.86 4C9.95 4 10.93 4.66 11.33 5.67L12.42 8.38C12.93 9.67 12.37 11.14 11.13 11.76L10.66 12C10.66 12 11.33 15.33 14 18C16.66 20.66 20 21.33 20 21.33L20.23 20.85C20.85 19.62 22.32 19.06 23.61 19.57L26.32 20.66C27.33 21.06 28 22.04 28 23.14L28 25.33Z" stroke="#141718" stroke-opacity="1.000000" stroke-width="2.500000" stroke-linejoin="round"/>
	</g>
</svg>
