<svg width="24.000000" height="24.000000" viewBox="0 0 24 24" fill="none" xmlns="http://www.w3.org/2000/svg" xmlns:xlink="http://www.w3.org/1999/xlink">
	<defs>
		<clipPath id="clip7_16837">
			<rect rx="-0.500000" width="23.000000" height="23.000000" transform="translate(0.500000 0.500000)" fill="white" fill-opacity="0"/>
		</clipPath>
	</defs>
	<g clip-path="url(#clip7_16837)">
		<path d="M4.48 17.87C4.55 17.73 4.66 17.52 4.76 17.39C4.86 17.25 4.98 17.12 5.11 16.99C5.24 16.87 5.38 16.76 5.53 16.67C5.67 16.58 5.81 16.51 5.96 16.45C6.11 16.38 6.27 16.34 6.42 16.3C6.61 16.26 6.8 16.25 7 16.25C7.2 16.25 7.39 16.27 7.58 16.31C7.75 16.34 7.91 16.39 8.07 16.46C8.22 16.53 8.37 16.61 8.51 16.7C8.66 16.8 8.81 16.92 8.94 17.05C9.07 17.18 9.19 17.33 9.29 17.48C9.38 17.62 9.46 17.77 9.53 17.92C9.57 18.03 9.61 18.14 9.64 18.25L13.25 18.25L13.25 7C13.25 6.75 13.22 6.5 13.16 6.26C13.12 6.08 13.06 5.9 12.99 5.73C12.91 5.55 12.82 5.38 12.72 5.22C12.6 5.03 12.45 4.86 12.29 4.7C12.13 4.54 11.96 4.39 11.77 4.27C11.61 4.17 11.44 4.08 11.26 4C11.09 3.93 10.91 3.87 10.73 3.83C10.49 3.77 10.24 3.75 10 3.75L6 3.75C5.75 3.75 5.5 3.77 5.26 3.83C5.08 3.87 4.9 3.93 4.73 4C4.55 4.08 4.38 4.17 4.22 4.27C4.03 4.39 3.86 4.54 3.7 4.7C3.54 4.86 3.39 5.03 3.27 5.22C3.17 5.38 3.08 5.55 3 5.73C2.93 5.9 2.87 6.08 2.83 6.26C2.77 6.5 2.75 6.75 2.75 7L2.75 15C2.75 15.22 2.77 15.44 2.81 15.65C2.84 15.8 2.88 15.94 2.93 16.08C2.98 16.23 3.05 16.37 3.12 16.51C3.21 16.68 3.32 16.85 3.44 17C3.55 17.15 3.67 17.28 3.81 17.4C3.93 17.51 4.07 17.62 4.21 17.71C4.3 17.77 4.39 17.82 4.48 17.87ZM4.28 19.43C4.22 19.4 4.17 19.38 4.11 19.36C3.86 19.25 3.62 19.12 3.39 18.97C3.18 18.83 2.98 18.67 2.79 18.5C2.6 18.33 2.42 18.14 2.26 17.93C2.09 17.71 1.94 17.48 1.81 17.24C1.69 17.02 1.59 16.8 1.51 16.57C1.44 16.35 1.38 16.13 1.33 15.91C1.27 15.61 1.25 15.3 1.25 15L1.25 7C1.25 6.64 1.28 6.3 1.36 5.97C1.42 5.69 1.51 5.41 1.62 5.15C1.73 4.88 1.87 4.62 2.03 4.38C2.2 4.12 2.41 3.87 2.64 3.64C2.87 3.41 3.12 3.2 3.38 3.03C3.62 2.87 3.88 2.73 4.15 2.62C4.41 2.51 4.69 2.42 4.97 2.36C5.3 2.28 5.64 2.25 6 2.25L10 2.25C10.35 2.25 10.69 2.28 11.02 2.36C11.3 2.42 11.58 2.51 11.84 2.62C12.11 2.73 12.37 2.87 12.61 3.03C12.87 3.2 13.12 3.41 13.35 3.64C13.58 3.87 13.79 4.12 13.96 4.38C14.12 4.62 14.26 4.88 14.37 5.15C14.48 5.41 14.57 5.69 14.63 5.97C14.65 6.06 14.67 6.15 14.69 6.25L17.2 6.25C17.38 6.25 17.55 6.26 17.72 6.29C17.89 6.33 18.05 6.37 18.22 6.44C18.38 6.5 18.53 6.58 18.68 6.67C18.82 6.76 18.96 6.87 19.08 6.99L21.88 9.61C22.01 9.74 22.14 9.88 22.24 10.03C22.35 10.18 22.44 10.34 22.52 10.52C22.59 10.69 22.65 10.87 22.69 11.05C22.73 11.24 22.75 11.42 22.75 11.61L22.75 17C22.75 17.2 22.72 17.39 22.68 17.58C22.65 17.75 22.6 17.91 22.53 18.07C22.46 18.22 22.38 18.37 22.29 18.51C22.19 18.66 22.07 18.81 21.94 18.94C21.81 19.07 21.66 19.19 21.51 19.29C21.37 19.38 21.22 19.46 21.07 19.53C20.93 19.58 20.8 19.63 20.66 19.66C20.63 19.8 20.58 19.93 20.53 20.07C20.46 20.22 20.38 20.37 20.29 20.51C20.19 20.66 20.07 20.81 19.94 20.94C19.81 21.07 19.66 21.19 19.51 21.29C19.37 21.38 19.22 21.46 19.07 21.53C18.91 21.6 18.75 21.65 18.58 21.68C18.39 21.72 18.2 21.75 18 21.75C17.79 21.75 17.6 21.72 17.41 21.68C17.24 21.65 17.08 21.6 16.92 21.53C16.77 21.46 16.62 21.38 16.48 21.29C16.33 21.19 16.18 21.07 16.05 20.94C15.92 20.81 15.8 20.66 15.7 20.51C15.61 20.37 15.53 20.22 15.46 20.07C15.42 19.96 15.38 19.85 15.35 19.75L9.64 19.75C9.61 19.85 9.57 19.96 9.53 20.07C9.46 20.22 9.38 20.37 9.29 20.51C9.19 20.66 9.07 20.81 8.94 20.94C8.81 21.07 8.66 21.19 8.51 21.29C8.37 21.38 8.22 21.46 8.07 21.53C7.91 21.6 7.75 21.65 7.58 21.68C7.39 21.72 7.2 21.75 7 21.75C6.79 21.75 6.6 21.72 6.41 21.68C6.24 21.65 6.08 21.6 5.92 21.53C5.77 21.46 5.62 21.38 5.48 21.29C5.33 21.19 5.18 21.07 5.05 20.94C4.92 20.81 4.8 20.66 4.7 20.51C4.61 20.37 4.53 20.22 4.46 20.07C4.39 19.91 4.34 19.75 4.31 19.58C4.3 19.53 4.29 19.48 4.28 19.43ZM15.35 18.25C15.38 18.14 15.42 18.03 15.46 17.92C15.53 17.77 15.61 17.62 15.7 17.48C15.8 17.33 15.92 17.18 16.05 17.05C16.18 16.92 16.33 16.8 16.48 16.7C16.62 16.61 16.77 16.53 16.92 16.46C17.08 16.39 17.24 16.34 17.41 16.31C17.6 16.27 17.79 16.25 18 16.25C18.2 16.25 18.39 16.27 18.58 16.31C18.75 16.34 18.91 16.39 19.07 16.46C19.22 16.53 19.37 16.61 19.51 16.7C19.66 16.8 19.81 16.92 19.94 17.05C20.07 17.18 20.19 17.33 20.29 17.48C20.38 17.62 20.46 17.77 20.53 17.92C20.55 17.98 20.57 18.04 20.59 18.09C20.67 18.05 20.82 17.94 20.88 17.88C20.94 17.82 21 17.75 21.05 17.67C21.08 17.61 21.12 17.55 21.15 17.48C21.17 17.42 21.2 17.35 21.21 17.29C21.23 17.19 21.25 17.09 21.25 17L21.25 11.61C21.25 11.53 21.24 11.44 21.22 11.36C21.2 11.27 21.18 11.19 21.14 11.11C21.11 11.04 21.07 10.96 21.02 10.89C20.97 10.82 20.91 10.76 20.85 10.7L18.06 8.08C18 8.03 17.94 7.98 17.87 7.94C17.81 7.9 17.74 7.86 17.66 7.83C17.59 7.8 17.51 7.78 17.44 7.77C17.36 7.75 17.28 7.75 17.2 7.75L14.75 7.75L14.75 18.25L15.35 18.25ZM18.29 20.21C18.19 20.23 18.09 20.25 18 20.25C17.9 20.25 17.8 20.23 17.7 20.21C17.64 20.2 17.57 20.17 17.51 20.15C17.44 20.12 17.38 20.08 17.32 20.05C17.24 20 17.17 19.94 17.11 19.88C17.05 19.82 16.99 19.75 16.94 19.67C16.91 19.61 16.87 19.55 16.84 19.48C16.82 19.42 16.79 19.35 16.78 19.29C16.76 19.19 16.75 19.09 16.75 19C16.75 18.9 16.76 18.8 16.78 18.7C16.79 18.64 16.82 18.57 16.84 18.51C16.87 18.44 16.91 18.38 16.94 18.32C16.99 18.24 17.05 18.17 17.11 18.11C17.17 18.05 17.24 17.99 17.32 17.94C17.38 17.91 17.44 17.87 17.51 17.84C17.57 17.82 17.64 17.79 17.7 17.78C17.8 17.76 17.9 17.75 18 17.75C18.09 17.75 18.19 17.76 18.29 17.78C18.35 17.79 18.42 17.82 18.48 17.84C18.55 17.87 18.61 17.91 18.67 17.94C18.75 17.99 18.82 18.05 18.88 18.11C18.94 18.17 19 18.24 19.05 18.32C19.08 18.38 19.12 18.44 19.15 18.51C19.17 18.57 19.2 18.64 19.21 18.7C19.23 18.8 19.25 18.9 19.25 19C19.25 19.09 19.23 19.19 19.21 19.29C19.2 19.35 19.17 19.42 19.15 19.48C19.12 19.55 19.08 19.61 19.05 19.67C19 19.75 18.94 19.82 18.88 19.88C18.82 19.94 18.75 20 18.67 20.05C18.61 20.08 18.55 20.12 18.48 20.15C18.42 20.17 18.35 20.2 18.29 20.21ZM7.29 20.21C7.19 20.23 7.09 20.25 7 20.25C6.9 20.25 6.8 20.23 6.7 20.21C6.64 20.2 6.57 20.17 6.51 20.15C6.44 20.12 6.38 20.08 6.32 20.05C6.24 20 6.17 19.94 6.11 19.88C6.05 19.82 5.99 19.75 5.94 19.67C5.91 19.61 5.87 19.55 5.84 19.48C5.82 19.42 5.79 19.35 5.78 19.29C5.76 19.19 5.75 19.09 5.75 19C5.75 18.91 5.77 18.74 5.79 18.66C5.81 18.59 5.83 18.52 5.87 18.46C5.9 18.39 5.93 18.33 5.97 18.28C6.02 18.21 6.08 18.14 6.14 18.09C6.2 18.03 6.27 17.97 6.34 17.93C6.4 17.89 6.46 17.86 6.53 17.84C6.59 17.81 6.65 17.79 6.71 17.78C6.8 17.76 6.9 17.75 7 17.75C7.09 17.75 7.19 17.76 7.29 17.78C7.35 17.79 7.42 17.82 7.48 17.84C7.55 17.87 7.61 17.91 7.67 17.94C7.75 17.99 7.82 18.05 7.88 18.11C7.94 18.17 8 18.24 8.05 18.32C8.08 18.38 8.12 18.44 8.15 18.51C8.17 18.57 8.2 18.64 8.21 18.7C8.23 18.8 8.25 18.9 8.25 19C8.25 19.09 8.23 19.19 8.21 19.29C8.2 19.35 8.17 19.42 8.15 19.48C8.12 19.55 8.08 19.61 8.05 19.67C8 19.75 7.94 19.82 7.88 19.88C7.82 19.94 7.75 20 7.67 20.05C7.61 20.08 7.55 20.12 7.48 20.15C7.42 20.17 7.35 20.2 7.29 20.21Z" fill="#141718" fill-opacity="1.000000" fill-rule="evenodd"/>
		<path d="M8 7.25L10 7.25C10.41 7.25 10.75 7.57 10.75 8C10.75 8.42 10.41 8.75 10 8.75L8 8.75C7.58 8.75 7.25 8.42 7.25 8C7.25 7.57 7.58 7.25 8 7.25Z" fill="#141718" fill-opacity="1.000000" fill-rule="evenodd"/>
		<path d="M6 11.25L10 11.25C10.41 11.25 10.75 11.58 10.75 12C10.75 12.42 10.41 12.75 10 12.75L6 12.75C5.58 12.75 5.25 12.42 5.25 12C5.25 11.58 5.58 11.25 6 11.25Z" fill="#141718" fill-opacity="1.000000" fill-rule="evenodd"/>
	</g>
</svg>
