<svg width="24.000000" height="24.000000" viewBox="0 0 24 24" fill="none" xmlns="http://www.w3.org/2000/svg" xmlns:xlink="http://www.w3.org/1999/xlink">
	<desc>
			Created with Pixso.
	</desc>
	<defs>
		<clipPath id="clip29_2525">
			<rect rx="-0.500000" width="23.000000" height="23.000000" transform="translate(0.500000 0.500000)" fill="white" fill-opacity="0"/>
		</clipPath>
	</defs>
	<g clip-path="url(#clip29_2525)">
		<path d="M3 7L6 7M3 17L9 17M18 17L21 17M15 7L21 7M15 20C13.34 20 12 18.65 12 17C12 15.34 13.34 14 15 14C16.65 14 18 15.34 18 17C18 18.65 16.65 20 15 20ZM9 10C7.34 10 6 8.65 6 7C6 5.34 7.34 4 9 4C10.65 4 12 5.34 12 7C12 8.65 10.65 10 9 10Z" stroke="#141718" stroke-opacity="1.000000" stroke-width="1.500000"/>
	</g>
</svg>
