<svg width="13.939117" height="12.940430" viewBox="0 0 13.9391 12.9404" fill="none" xmlns="http://www.w3.org/2000/svg" xmlns:xlink="http://www.w3.org/1999/xlink">
	<desc>
			Created with Pixso.
	</desc>
	<defs/>
	<path id="Shape" d="M6.35 0.4C6.58 -0.14 7.35 -0.14 7.58 0.4L9.03 3.77C9.13 3.99 9.34 4.15 9.59 4.17L13.32 4.45C13.92 4.5 14.15 5.25 13.69 5.63L10.89 7.95C10.69 8.11 10.6 8.37 10.67 8.62L11.53 12.11C11.67 12.68 11.05 13.14 10.54 12.84L7.3 10.93C7.09 10.81 6.84 10.81 6.63 10.93L3.39 12.84C2.88 13.14 2.26 12.68 2.4 12.11L3.26 8.62C3.33 8.37 3.24 8.11 3.04 7.95L0.24 5.63C-0.22 5.25 0.01 4.5 0.61 4.45L4.34 4.17C4.59 4.15 4.8 3.99 4.9 3.77L6.35 0.4Z" fill="#141718" fill-opacity="1.000000" fill-rule="nonzero"/>
</svg>
