<svg width="24.000000" height="24.000000" viewBox="0 0 24 24" fill="none" xmlns="http://www.w3.org/2000/svg" xmlns:xlink="http://www.w3.org/1999/xlink">
	<defs>
		<clipPath id="clip49_2616">
			<rect id="bi:grid-3x3-gap-fill" rx="-0.500000" width="23.000000" height="23.000000" transform="translate(0.500000 0.500000)" fill="white" fill-opacity="0"/>
		</clipPath>
	</defs>
	<rect id="bi:grid-3x3-gap-fill" rx="-0.500000" width="23.000000" height="23.000000" transform="translate(0.500000 0.500000)" fill="#FFFFFF" fill-opacity="0"/>
	<g clip-path="url(#clip49_2616)">
		<path id="Vector" d="M1.5 3C1.5 2.6 1.65 2.22 1.93 1.93C2.22 1.65 2.6 1.5 3 1.5L6 1.5C6.39 1.5 6.77 1.65 7.06 1.93C7.34 2.22 7.5 2.6 7.5 3L7.5 6C7.5 6.39 7.34 6.77 7.06 7.06C6.77 7.34 6.39 7.5 6 7.5L3 7.5C2.6 7.5 2.22 7.34 1.93 7.06C1.65 6.77 1.5 6.39 1.5 6L1.5 3ZM9 3C9 2.6 9.15 2.22 9.43 1.93C9.72 1.65 10.1 1.5 10.5 1.5L13.5 1.5C13.89 1.5 14.27 1.65 14.56 1.93C14.84 2.22 15 2.6 15 3L15 6C15 6.39 14.84 6.77 14.56 7.06C14.27 7.34 13.89 7.5 13.5 7.5L10.5 7.5C10.1 7.5 9.72 7.34 9.43 7.06C9.15 6.77 9 6.39 9 6L9 3ZM16.5 3C16.5 2.6 16.65 2.22 16.93 1.93C17.22 1.65 17.6 1.5 18 1.5L21 1.5C21.39 1.5 21.77 1.65 22.06 1.93C22.34 2.22 22.5 2.6 22.5 3L22.5 6C22.5 6.39 22.34 6.77 22.06 7.06C21.77 7.34 21.39 7.5 21 7.5L18 7.5C17.6 7.5 17.22 7.34 16.93 7.06C16.65 6.77 16.5 6.39 16.5 6L16.5 3ZM1.5 10.5C1.5 10.1 1.65 9.72 1.93 9.43C2.22 9.15 2.6 9 3 9L6 9C6.39 9 6.77 9.15 7.06 9.43C7.34 9.72 7.5 10.1 7.5 10.5L7.5 13.5C7.5 13.89 7.34 14.27 7.06 14.56C6.77 14.84 6.39 15 6 15L3 15C2.6 15 2.22 14.84 1.93 14.56C1.65 14.27 1.5 13.89 1.5 13.5L1.5 10.5ZM9 10.5C9 10.1 9.15 9.72 9.43 9.43C9.72 9.15 10.1 9 10.5 9L13.5 9C13.89 9 14.27 9.15 14.56 9.43C14.84 9.72 15 10.1 15 10.5L15 13.5C15 13.89 14.84 14.27 14.56 14.56C14.27 14.84 13.89 15 13.5 15L10.5 15C10.1 15 9.72 14.84 9.43 14.56C9.15 14.27 9 13.89 9 13.5L9 10.5ZM16.5 10.5C16.5 10.1 16.65 9.72 16.93 9.43C17.22 9.15 17.6 9 18 9L21 9C21.39 9 21.77 9.15 22.06 9.43C22.34 9.72 22.5 10.1 22.5 10.5L22.5 13.5C22.5 13.89 22.34 14.27 22.06 14.56C21.77 14.84 21.39 15 21 15L18 15C17.6 15 17.22 14.84 16.93 14.56C16.65 14.27 16.5 13.89 16.5 13.5L16.5 10.5ZM1.5 18C1.5 17.6 1.65 17.22 1.93 16.93C2.22 16.65 2.6 16.5 3 16.5L6 16.5C6.39 16.5 6.77 16.65 7.06 16.93C7.34 17.22 7.5 17.6 7.5 18L7.5 21C7.5 21.39 7.34 21.77 7.06 22.06C6.77 22.34 6.39 22.5 6 22.5L3 22.5C2.6 22.5 2.22 22.34 1.93 22.06C1.65 21.77 1.5 21.39 1.5 21L1.5 18ZM9 18C9 17.6 9.15 17.22 9.43 16.93C9.72 16.65 10.1 16.5 10.5 16.5L13.5 16.5C13.89 16.5 14.27 16.65 14.56 16.93C14.84 17.22 15 17.6 15 18L15 21C15 21.39 14.84 21.77 14.56 22.06C14.27 22.34 13.89 22.5 13.5 22.5L10.5 22.5C10.1 22.5 9.72 22.34 9.43 22.06C9.15 21.77 9 21.39 9 21L9 18ZM16.5 18C16.5 17.6 16.65 17.22 16.93 16.93C17.22 16.65 17.6 16.5 18 16.5L21 16.5C21.39 16.5 21.77 16.65 22.06 16.93C22.34 17.22 22.5 17.6 22.5 18L22.5 21C22.5 21.39 22.34 21.77 22.06 22.06C21.77 22.34 21.39 22.5 21 22.5L18 22.5C17.6 22.5 17.22 22.34 16.93 22.06C16.65 21.77 16.5 21.39 16.5 21L16.5 18Z" fill="#141718" fill-opacity="1.000000" fill-rule="nonzero"/>
	</g>
</svg>
